# xmcd
# 
# Track frame offsets:
#     150
#     20783
#     35054
#     53307
#     67489
#     82737
#     98025
#     111627
#     129946
#     139336
# 
# Disc length: 2258
# 
# Revision: 0
# Processed by: cddbd v1.5.2PL0 Copyright (c) Steve Scherf et al.
# Submitted via: fre:ac v1.0.17
# 
DISCID=8c08d00a
DTITLE=Neil Young - Harvest
DYEAR=0
DGENRE=
TTITLE0=Out On the Weekend
TTITLE1=Harvest
TTITLE2=A Man Needs a Maid
TTITLE3=Heart of Gold
TTITLE4=Are You Ready For the Country?
TTITLE5=Old Man
TTITLE6=There's A world
TTITLE7=Alabama
TTITLE8=The Needle and the Damage Done
TTITLE9=Words (Between the Lines of Age)
EXTD=
EXTT0=
EXTT1=
EXTT2=
EXTT3=
EXTT4=
EXTT5=
EXTT6=
EXTT7=
EXTT8=
EXTT9=
PLAYORDER=
